<svg xmlns="http://www.w3.org/2000/svg" xmlns:xlink="http://www.w3.org/1999/xlink" version="1.1" x="0px" y="0px" viewBox="0 0 65 65" enable-background="new 0 0 65 65" xml:space="preserve">
<g fill="white" stroke="white" >
<polygon points="38.8,26.2 37.7,27.3 41.1,30.6 37.7,33.9 38.8,35 43.2,30.6  "></polygon>
<polygon points="26.2,26.2 21.8,30.6 26.2,35 27.3,33.9 23.9,30.6 27.3,27.3  "></polygon>
<rect x="31.8" y="22.1" transform="matrix(-0.8962 -0.4436 0.4436 -0.8962 48.0558 72.428)" width="1.5" height="17"></rect><rect x="31.8" y="59" width="1.5" height="1.5"></rect>
<rect x="31.8" y="55.8" width="1.5" height="1.5"></rect>
<path d="M65.3,0.3H-0.2V55h27.8v4.7c0,2.7,2.2,5,5,5c2.7,0,5-2.2,5-5V55h27.8V0.3z M63.8,1.8v6.5H1.3V1.8H63.8z M36,59.7   c0,1.9-1.6,3.5-3.5,3.5c-1.9,0-3.5-1.6-3.5-3.5v-9.6c0-0.5,0.4-0.9,0.9-0.9h1.3v-3.9c0.4,0,0.8,0.1,1.3,0.1c0.4,0,0.8,0,1.3-0.1   v3.9h1.3c0.5,0,0.9,0.4,0.9,0.9V59.7z M32.5,43.8c-7.3,0-13.3-6-13.3-13.3c0-7.3,6-13.3,13.3-13.3c7.3,0,13.3,6,13.3,13.3   C45.8,37.9,39.8,43.8,32.5,43.8z M37.5,53.5v-3.4c0-1.3-1-2.3-2.2-2.4v-2.6c6.8-1.3,12-7.3,12-14.5c0-8.1-6.6-14.8-14.8-14.8   c-8.1,0-14.8,6.6-14.8,14.8c0,7.2,5.2,13.2,12,14.5v2.6c-1.2,0.1-2.2,1.1-2.2,2.4v3.4H1.3V9.8h62.5v43.7H37.5z"></path>
<rect x="58.7" y="4.3" width="1.5" height="1.5"></rect><rect x="51.1" y="4.3" width="1.5" height="1.5"></rect><rect x="54.9" y="4.3" width="1.5" height="1.5"></rect><path d="M5.7,5.8H46c0.4,0,0.8-0.3,0.8-0.8c0-0.4-0.3-0.8-0.8-0.8H5.7c-0.4,0-0.8,0.3-0.8,0.8C4.9,5.5,5.3,5.8,5.7,5.8z"></path>
<rect x="43.6" y="16.1" width="17.2" height="1.5"></rect><rect x="48.2" y="22.2" width="12.7" height="1.5"></rect><rect x="49.4" y="28.3" width="11.4" height="1.5"></rect><rect x="49.4" y="34.4" width="11.4" height="1.5"></rect><rect x="46.4" y="40.5" width="14.4" height="1.5"></rect><rect x="40.9" y="46.6" width="19.9" height="1.5"></rect><rect x="4.2" y="16.1" width="17.2" height="1.5"></rect><rect x="4.2" y="22.2" width="12.7" height="1.5"></rect><rect x="4.2" y="28.3" width="11.4" height="1.5"></rect><rect x="4.2" y="34.4" width="11.4" height="1.5"></rect><rect x="4.2" y="40.5" width="14.4" height="1.5"></rect><rect x="4.2" y="46.6" width="19.9" height="1.5"></rect>
</g></svg>